<?xml version="1.0" encoding="UTF-8"?>
<svg xmlns="http://www.w3.org/2000/svg" xmlns:xlink="http://www.w3.org/1999/xlink" width="15px" height="15px" viewBox="0 0 15 15" version="1.1">
<g id="surface1">
<path style=" stroke:none;fill-rule:nonzero;fill:rgb(35.294119%,20%,57.254905%);fill-opacity:1;" d="M 7.496094 1.605469 C 4.246094 1.605469 1.605469 4.246094 1.605469 7.496094 C 1.605469 10.75 4.246094 13.390625 7.496094 13.390625 C 10.75 13.390625 13.394531 10.75 13.394531 7.496094 C 13.394531 4.246094 10.75 1.605469 7.496094 1.605469 Z M 7.496094 1.605469 "/>
<path style=" stroke:none;fill-rule:nonzero;fill:rgb(16.078432%,63.921571%,92.54902%);fill-opacity:1;" d="M 7.496094 2.136719 C 10.460938 2.136719 12.855469 4.535156 12.855469 7.496094 C 12.855469 10.460938 10.460938 12.855469 7.496094 12.855469 C 4.535156 12.855469 2.144531 10.460938 2.144531 7.496094 C 2.144531 4.535156 4.535156 2.136719 7.496094 2.136719 Z M 7.496094 2.136719 "/>
<path style=" stroke:none;fill-rule:nonzero;fill:rgb(23.529412%,87.058824%,96.470588%);fill-opacity:1;" d="M 7.496094 2.542969 C 10.238281 2.542969 12.453125 4.757812 12.453125 7.496094 C 12.453125 10.238281 10.238281 12.453125 7.496094 12.453125 C 4.757812 12.453125 2.546875 10.238281 2.546875 7.496094 C 2.546875 4.757812 4.757812 2.542969 7.496094 2.542969 Z M 7.496094 2.542969 "/>
<path style=" stroke:none;fill-rule:nonzero;fill:rgb(100%,100%,100%);fill-opacity:1;" d="M 7.496094 3.746094 C 9.574219 3.746094 11.253906 5.421875 11.253906 7.496094 C 11.253906 9.574219 9.574219 11.246094 7.496094 11.246094 C 5.421875 11.246094 3.746094 9.574219 3.746094 7.496094 C 3.746094 5.421875 5.421875 3.746094 7.496094 3.746094 Z M 7.496094 3.746094 "/>
<path style=" stroke:none;fill-rule:nonzero;fill:rgb(92.156863%,99.607843%,100%);fill-opacity:1;" d="M 7.496094 4.148438 C 9.347656 4.148438 10.847656 5.644531 10.847656 7.496094 C 10.847656 9.351562 9.347656 10.847656 7.496094 10.847656 C 5.644531 10.847656 4.152344 9.351562 4.152344 7.496094 C 4.152344 5.644531 5.644531 4.148438 7.496094 4.148438 Z M 7.496094 4.148438 "/>
<path style=" stroke:none;fill-rule:nonzero;fill:rgb(35.294119%,20%,57.254905%);fill-opacity:1;" d="M 7.496094 6.425781 C 6.910156 6.425781 6.425781 6.910156 6.425781 7.496094 C 6.425781 8.085938 6.910156 8.570312 7.496094 8.570312 C 8.085938 8.570312 8.570312 8.085938 8.570312 7.496094 C 8.570312 6.910156 8.085938 6.425781 7.496094 6.425781 Z M 7.496094 6.425781 "/>
<path style=" stroke:none;fill-rule:nonzero;fill:rgb(93.333334%,45.490196%,42.352942%);fill-opacity:1;" d="M 7.496094 6.964844 C 7.796875 6.964844 8.035156 7.199219 8.035156 7.496094 C 8.035156 7.796875 7.796875 8.035156 7.496094 8.035156 C 7.199219 8.035156 6.964844 7.796875 6.964844 7.496094 C 6.964844 7.199219 7.199219 6.964844 7.496094 6.964844 Z M 7.496094 6.964844 "/>
<path style=" stroke:none;fill-rule:nonzero;fill:rgb(35.294119%,20%,57.254905%);fill-opacity:1;" d="M 7.234375 0 L 7.234375 4.824219 L 7.765625 4.824219 L 7.765625 0 Z M 7.234375 0 "/>
<path style=" stroke:none;fill-rule:nonzero;fill:rgb(35.294119%,20%,57.254905%);fill-opacity:1;" d="M 7.234375 10.175781 L 7.234375 15 L 7.765625 15 L 7.765625 10.175781 Z M 7.234375 10.175781 "/>
<path style=" stroke:none;fill-rule:nonzero;fill:rgb(35.294119%,20%,57.254905%);fill-opacity:1;" d="M 10.175781 7.226562 L 10.175781 7.765625 L 15 7.765625 L 15 7.226562 Z M 10.175781 7.226562 "/>
<path style=" stroke:none;fill-rule:nonzero;fill:rgb(35.294119%,20%,57.254905%);fill-opacity:1;" d="M 0 7.226562 L 0 7.765625 L 4.824219 7.765625 L 4.824219 7.226562 Z M 0 7.226562 "/>
<path style=" stroke:none;fill-rule:nonzero;fill:rgb(98.431373%,59.215689%,38.039216%);fill-opacity:1;" d="M 7.496094 7.167969 C 7.683594 7.167969 7.832031 7.3125 7.832031 7.496094 C 7.832031 7.683594 7.683594 7.832031 7.496094 7.832031 C 7.3125 7.832031 7.167969 7.683594 7.167969 7.496094 C 7.167969 7.3125 7.3125 7.167969 7.496094 7.167969 Z M 7.496094 7.167969 "/>
<path style=" stroke:none;fill-rule:nonzero;fill:rgb(35.294119%,20%,57.254905%);fill-opacity:1;" d="M 8.417969 3.324219 C 8.269531 3.328125 8.15625 3.453125 8.164062 3.605469 C 8.171875 3.722656 8.253906 3.824219 8.371094 3.847656 C 9.746094 4.175781 10.816406 5.25 11.144531 6.621094 C 11.179688 6.765625 11.324219 6.855469 11.46875 6.820312 C 11.613281 6.785156 11.699219 6.640625 11.667969 6.496094 C 11.292969 4.925781 10.066406 3.703125 8.5 3.332031 C 8.46875 3.324219 8.441406 3.320312 8.417969 3.324219 Z M 8.417969 3.324219 "/>
<path style=" stroke:none;fill-rule:nonzero;fill:rgb(35.294119%,20%,57.254905%);fill-opacity:1;" d="M 6.570312 3.324219 C 6.542969 3.324219 6.519531 3.324219 6.5 3.332031 C 4.933594 3.707031 3.714844 4.925781 3.332031 6.492188 C 3.296875 6.632812 3.378906 6.777344 3.523438 6.816406 C 3.667969 6.859375 3.816406 6.773438 3.851562 6.628906 C 3.851562 6.625 3.855469 6.621094 3.855469 6.617188 C 4.1875 5.246094 5.253906 4.179688 6.625 3.847656 C 6.769531 3.816406 6.859375 3.675781 6.824219 3.53125 C 6.796875 3.410156 6.691406 3.324219 6.570312 3.324219 Z M 6.570312 3.324219 "/>
<path style=" stroke:none;fill-rule:nonzero;fill:rgb(35.294119%,20%,57.254905%);fill-opacity:1;" d="M 11.414062 8.167969 C 11.285156 8.167969 11.175781 8.253906 11.144531 8.375 C 10.8125 9.746094 9.746094 10.816406 8.375 11.144531 C 8.230469 11.175781 8.136719 11.316406 8.167969 11.460938 C 8.199219 11.605469 8.339844 11.699219 8.480469 11.667969 C 8.488281 11.667969 8.492188 11.667969 8.503906 11.667969 C 10.066406 11.289062 11.289062 10.070312 11.667969 8.503906 C 11.703125 8.363281 11.621094 8.214844 11.476562 8.175781 C 11.457031 8.171875 11.433594 8.171875 11.414062 8.167969 Z M 11.414062 8.167969 "/>
<path style=" stroke:none;fill-rule:nonzero;fill:rgb(35.294119%,20%,57.254905%);fill-opacity:1;" d="M 3.578125 8.160156 C 3.429688 8.167969 3.316406 8.292969 3.324219 8.441406 C 3.324219 8.460938 3.328125 8.480469 3.332031 8.492188 C 3.707031 10.058594 4.925781 11.289062 6.496094 11.667969 C 6.640625 11.699219 6.785156 11.609375 6.820312 11.464844 C 6.851562 11.324219 6.765625 11.179688 6.625 11.144531 C 5.25 10.8125 4.179688 9.746094 3.851562 8.371094 C 3.824219 8.242188 3.707031 8.152344 3.578125 8.160156 Z M 3.578125 8.160156 "/>
</g>
</svg>
